<svg width="17" height="17" viewBox="0 0 17 17" fill="none" xmlns="http://www.w3.org/2000/svg">
<path d="M9.12981 3.15196C9.12981 2.78276 8.83051 2.48346 8.46131 2.48346C8.09211 2.48346 7.79281 2.78276 7.79281 3.15196V7.83145H3.11332C2.74412 7.83145 2.44482 8.13074 2.44482 8.49994C2.44482 8.86915 2.74412 9.16844 3.11332 9.16844H7.79281V13.8479C7.79281 14.2171 8.09211 14.5164 8.46131 14.5164C8.83051 14.5164 9.12981 14.2171 9.12981 13.8479V9.16844H13.8093C14.1785 9.16844 14.4778 8.86915 14.4778 8.49994C14.4778 8.13074 14.1785 7.83145 13.8093 7.83145H9.12981V3.15196Z" fill="#CC400C"/>
</svg>
