<svg width="39" height="39" viewBox="0 0 39 39" fill="none" xmlns="http://www.w3.org/2000/svg">
<rect x="0.32959" y="0.0769653" width="38.5055" height="38.5055" rx="9.62637" fill="#FFFBED"/>
<path d="M19.5828 16.3214C18.9879 16.3214 18.4062 16.4979 17.9115 16.8284C17.4168 17.159 17.0313 17.6288 16.8036 18.1785C16.5759 18.7282 16.5163 19.333 16.6324 19.9166C16.7485 20.5001 17.035 21.0361 17.4557 21.4568C17.8764 21.8775 18.4124 22.1641 18.996 22.2801C19.5795 22.3962 20.1844 22.3366 20.734 22.1089C21.2837 21.8813 21.7535 21.4957 22.0841 21.001C22.4146 20.5063 22.5911 19.9247 22.5911 19.3297C22.5911 18.5319 22.2741 17.7667 21.71 17.2025C21.1458 16.6384 20.3807 16.3214 19.5828 16.3214ZM19.5828 21.1346C19.2258 21.1346 18.8769 21.0288 18.5801 20.8304C18.2832 20.6321 18.0519 20.3502 17.9153 20.0204C17.7787 19.6906 17.7429 19.3277 17.8126 18.9776C17.8822 18.6274 18.0541 18.3058 18.3065 18.0534C18.559 17.801 18.8806 17.6291 19.2307 17.5594C19.5808 17.4898 19.9437 17.5255 20.2736 17.6621C20.6034 17.7988 20.8853 18.0301 21.0836 18.3269C21.2819 18.6237 21.3878 18.9727 21.3878 19.3297C21.3878 19.8084 21.1976 20.2675 20.8591 20.606C20.5206 20.9445 20.0615 21.1346 19.5828 21.1346ZM28.0059 13.9149H11.1598C11.0002 13.9149 10.8472 13.9782 10.7343 14.0911C10.6215 14.2039 10.5581 14.3569 10.5581 14.5165V24.1429C10.5581 24.3024 10.6215 24.4555 10.7343 24.5683C10.8472 24.6811 11.0002 24.7445 11.1598 24.7445H28.0059C28.1655 24.7445 28.3185 24.6811 28.4313 24.5683C28.5442 24.4555 28.6076 24.3024 28.6076 24.1429V14.5165C28.6076 14.3569 28.5442 14.2039 28.4313 14.0911C28.3185 13.9782 28.1655 13.9149 28.0059 13.9149ZM24.5201 23.5412H14.6456C14.4436 22.8581 14.0738 22.2363 13.5701 21.7325C13.0663 21.2288 12.4446 20.8591 11.7614 20.6571V18.0023C12.4446 17.8003 13.0663 17.4306 13.5701 16.9268C14.0738 16.4231 14.4436 15.8013 14.6456 15.1182H24.5201C24.7221 15.8013 25.0918 16.4231 25.5956 16.9268C26.0993 17.4306 26.7211 17.8003 27.4043 18.0023V20.6571C26.7211 20.8591 26.0993 21.2288 25.5956 21.7325C25.0918 22.2363 24.7221 22.8581 24.5201 23.5412ZM27.4043 16.7253C26.6826 16.415 26.1074 15.8398 25.7971 15.1182H27.4043V16.7253ZM13.3686 15.1182C13.0582 15.8398 12.4831 16.415 11.7614 16.7253V15.1182H13.3686ZM11.7614 21.9341C12.4831 22.2444 13.0582 22.8196 13.3686 23.5412H11.7614V21.9341ZM25.7971 23.5412C26.1074 22.8196 26.6826 22.2444 27.4043 21.9341V23.5412H25.7971Z" fill="#D8AF7F"/>
</svg>
