<svg width="20" height="20" viewBox="0 0 20 20" fill="none" xmlns="http://www.w3.org/2000/svg">
<path d="M4.16683 5.41671C3.70659 5.41671 3.3335 5.7898 3.3335 6.25004C3.3335 6.71028 3.70659 7.08337 4.16683 7.08337H5.8335C6.29373 7.08337 6.66683 6.71028 6.66683 6.25004C6.66683 5.7898 6.29373 5.41671 5.8335 5.41671H4.16683Z" fill="black"/>
<path d="M13.3335 6.25004C13.3335 5.7898 13.7066 5.41671 14.1668 5.41671H15.8335C16.2937 5.41671 16.6668 5.7898 16.6668 6.25004C16.6668 6.71028 16.2937 7.08337 15.8335 7.08337H14.1668C13.7066 7.08337 13.3335 6.71028 13.3335 6.25004Z" fill="black"/>
<path d="M4.16683 12.9167C3.70659 12.9167 3.3335 13.2898 3.3335 13.75C3.3335 14.2103 3.70659 14.5834 4.16683 14.5834H5.8335C6.29373 14.5834 6.66683 14.2103 6.66683 13.75C6.66683 13.2898 6.29373 12.9167 5.8335 12.9167H4.16683Z" fill="black"/>
<path d="M13.3335 13.75C13.3335 13.2898 13.7066 12.9167 14.1668 12.9167H15.8335C16.2937 12.9167 16.6668 13.2898 16.6668 13.75C16.6668 14.2103 16.2937 14.5834 15.8335 14.5834H14.1668C13.7066 14.5834 13.3335 14.2103 13.3335 13.75Z" fill="black"/>
<path fill-rule="evenodd" clip-rule="evenodd" d="M10.0002 7.50004C11.3809 7.50004 12.5002 8.61933 12.5002 10C12.5002 11.3808 11.3809 12.5 10.0002 12.5C8.61945 12.5 7.50016 11.3808 7.50016 10C7.50016 8.61933 8.61945 7.50004 10.0002 7.50004ZM10.8335 10C10.8335 9.5398 10.4604 9.16671 10.0002 9.16671C9.53993 9.16671 9.16683 9.5398 9.16683 10C9.16683 10.4603 9.53993 10.8334 10.0002 10.8334C10.4604 10.8334 10.8335 10.4603 10.8335 10Z" fill="black"/>
<path fill-rule="evenodd" clip-rule="evenodd" d="M4.16683 3.33337C2.32588 3.33337 0.833496 4.82576 0.833496 6.66671V13.3334C0.833496 15.1743 2.32588 16.6667 4.16683 16.6667H15.8335C17.6744 16.6667 19.1668 15.1743 19.1668 13.3334V6.66671C19.1668 4.82576 17.6744 3.33337 15.8335 3.33337H4.16683ZM2.50016 6.66671C2.50016 5.74623 3.24635 5.00004 4.16683 5.00004H15.8335C16.754 5.00004 17.5002 5.74623 17.5002 6.66671V13.3334C17.5002 14.2538 16.754 15 15.8335 15H4.16683C3.24635 15 2.50016 14.2538 2.50016 13.3334V6.66671Z" fill="black"/>
</svg>
