<svg width="39" height="39" viewBox="0 0 39 39" fill="none" xmlns="http://www.w3.org/2000/svg">
<rect x="0.428223" y="0.0769653" width="38.5055" height="38.5055" rx="9.62637" fill="#EDFCFF"/>
<path d="M23.7396 22.1542C24.1149 21.898 24.555 21.7532 25.0091 21.7366C25.4632 21.7201 25.9128 21.8324 26.3057 22.0607C26.6986 22.289 27.0189 22.6238 27.2294 23.0265C27.44 23.4292 27.5322 23.8833 27.4955 24.3362C26.533 24.6726 25.5107 24.8035 24.4945 24.7204C24.4913 23.8113 24.2295 22.9209 23.7396 22.155C23.3047 21.473 22.7049 20.9116 21.9955 20.523C21.2861 20.1343 20.4902 19.9308 19.6813 19.9313C18.8725 19.9309 18.0767 20.1345 17.3675 20.5231C16.6583 20.9118 16.0586 21.4731 15.6238 22.155M24.4937 24.7196L24.4945 24.7445C24.4945 24.925 24.4848 25.1031 24.4648 25.2788C23.0091 26.114 21.3595 26.5521 19.6813 26.5495C17.9405 26.5495 16.3064 26.0874 14.8978 25.2788C14.8771 25.0931 14.8672 24.9064 14.8681 24.7196M14.8681 24.7196C13.8522 24.8057 12.8304 24.6753 11.8687 24.337C11.8321 23.8842 11.9243 23.4303 12.1349 23.0277C12.3454 22.6252 12.6656 22.2904 13.0583 22.0622C13.4511 21.834 13.9005 21.7216 14.3545 21.738C14.8084 21.7544 15.2485 21.899 15.6238 22.155M14.8681 24.7196C14.871 23.8105 15.1341 22.921 15.6238 22.155M22.0879 15.1181C22.0879 15.7564 21.8343 16.3685 21.383 16.8199C20.9317 17.2712 20.3195 17.5247 19.6813 17.5247C19.043 17.5247 18.4309 17.2712 17.9796 16.8199C17.5282 16.3685 17.2747 15.7564 17.2747 15.1181C17.2747 14.4799 17.5282 13.8677 17.9796 13.4164C18.4309 12.9651 19.043 12.7115 19.6813 12.7115C20.3195 12.7115 20.9317 12.9651 21.383 13.4164C21.8343 13.8677 22.0879 14.4799 22.0879 15.1181ZM26.9011 17.5247C26.9011 17.7618 26.8544 17.9965 26.7637 18.2155C26.673 18.4344 26.54 18.6334 26.3724 18.801C26.2048 18.9686 26.0058 19.1016 25.7868 19.1923C25.5678 19.283 25.3331 19.3297 25.0961 19.3297C24.8591 19.3297 24.6244 19.283 24.4054 19.1923C24.1864 19.1016 23.9874 18.9686 23.8198 18.801C23.6522 18.6334 23.5193 18.4344 23.4286 18.2155C23.3379 17.9965 23.2912 17.7618 23.2912 17.5247C23.2912 17.046 23.4813 16.5869 23.8198 16.2484C24.1583 15.91 24.6174 15.7198 25.0961 15.7198C25.5748 15.7198 26.0339 15.91 26.3724 16.2484C26.7109 16.5869 26.9011 17.046 26.9011 17.5247ZM16.0714 17.5247C16.0714 17.7618 16.0247 17.9965 15.934 18.2155C15.8433 18.4344 15.7103 18.6334 15.5427 18.801C15.3751 18.9686 15.1762 19.1016 14.9572 19.1923C14.7382 19.283 14.5035 19.3297 14.2664 19.3297C14.0294 19.3297 13.7947 19.283 13.5757 19.1923C13.3567 19.1016 13.1578 18.9686 12.9902 18.801C12.8225 18.6334 12.6896 18.4344 12.5989 18.2155C12.5082 17.9965 12.4615 17.7618 12.4615 17.5247C12.4615 17.046 12.6517 16.5869 12.9902 16.2484C13.3286 15.91 13.7877 15.7198 14.2664 15.7198C14.7451 15.7198 15.2042 15.91 15.5427 16.2484C15.8812 16.5869 16.0714 17.046 16.0714 17.5247Z" stroke="#007FB6" stroke-width="1.2033" stroke-linecap="round" stroke-linejoin="round"/>
</svg>
