<svg width="12" height="12" viewBox="0 0 12 12" fill="none" xmlns="http://www.w3.org/2000/svg">
<path d="M6 3C6.27614 3 6.5 3.22386 6.5 3.5V7C6.5 7.27614 6.27614 7.5 6 7.5C5.72386 7.5 5.5 7.27614 5.5 7V3.5C5.5 3.22386 5.72386 3 6 3Z" fill="black"/>
<path d="M5.375 8.375C5.375 8.72018 5.65482 9 6 9C6.34518 9 6.625 8.72018 6.625 8.375C6.625 8.02982 6.34518 7.75 6 7.75C5.65482 7.75 5.375 8.02982 5.375 8.375Z" fill="black"/>
<path fill-rule="evenodd" clip-rule="evenodd" d="M1 6C1 3.23858 3.23858 1 6 1C8.76142 1 11 3.23858 11 6C11 8.76142 8.76142 11 6 11C3.23858 11 1 8.76142 1 6ZM6 2C3.79086 2 2 3.79086 2 6C2 8.20914 3.79086 10 6 10C8.20914 10 10 8.20914 10 6C10 3.79086 8.20914 2 6 2Z" fill="black"/>
</svg>
