<svg width="20" height="20" viewBox="0 0 20 20" fill="none" xmlns="http://www.w3.org/2000/svg">
<path fill-rule="evenodd" clip-rule="evenodd" d="M10.0004 1.66504L4.79471 1.9904C3.55494 2.06788 2.4611 2.82832 1.9566 3.96344L1.50167 4.98702C1.01098 6.09109 1.15612 7.37426 1.88105 8.34082L2.09629 8.62781L2.39281 15.1514C2.47374 16.9316 3.94062 18.3333 5.72271 18.3333H14.2782C16.0602 18.3333 17.5271 16.9316 17.608 15.1514L17.8991 8.74712C18.6919 8.00601 18.9841 6.8499 18.6035 5.80335L18.0098 4.17052C17.5567 2.92454 16.4083 2.06553 15.085 1.98283L10.0004 1.66504ZM4.05776 15.0757L3.80541 9.52391C4.51924 9.60799 5.25602 9.44226 5.87935 9.02671L5.9659 8.96901C6.43653 8.65526 7.03918 8.61774 7.54509 8.87069L8.50972 9.353C9.44814 9.82222 10.5527 9.82222 11.4911 9.353L12.4558 8.87069C12.9617 8.61774 13.5643 8.65526 14.035 8.96901L14.1215 9.02671C14.7448 9.44226 15.4816 9.60799 16.1955 9.52391L15.9431 15.0757C15.9026 15.9658 15.1692 16.6667 14.2782 16.6667H12.5728L12.7412 14.6453C12.8748 13.0419 11.6095 11.6667 10.0004 11.6667C8.39141 11.6667 7.12603 13.0419 7.25966 14.6453L7.4281 16.6667H5.72271C4.83166 16.6667 4.09822 15.9658 4.05776 15.0757ZM15.046 7.63996C15.523 7.95797 16.1445 7.95797 16.6215 7.63996C17.0356 7.36392 17.2073 6.84059 17.0372 6.37292L16.4434 4.7401C16.2169 4.11711 15.6427 3.6876 14.9811 3.64625L10.0004 3.33496L4.89867 3.65382C4.27879 3.69256 3.73187 4.07278 3.47962 4.64034L3.02469 5.66392C2.77935 6.21596 2.85192 6.85754 3.21438 7.34082L3.48795 7.70557C3.94792 7.95622 4.51327 7.93434 4.95485 7.63996L5.0414 7.58226C6.00967 6.93674 7.24959 6.85955 8.29044 7.37998L9.25508 7.86229C9.72429 8.0969 10.2766 8.0969 10.7458 7.86229L11.7104 7.37998C12.7513 6.85955 13.9912 6.93674 14.9595 7.58226L15.046 7.63996ZM11.0803 14.5069L10.9003 16.6667H9.10054L8.92056 14.5069C8.86792 13.8752 9.36648 13.3333 10.0004 13.3333C10.6344 13.3333 11.1329 13.8752 11.0803 14.5069Z" fill="black"/>
</svg>
