<svg width="20" height="20" viewBox="0 0 20 20" fill="none" xmlns="http://www.w3.org/2000/svg">
<path fill-rule="evenodd" clip-rule="evenodd" d="M15.8337 17.5C17.6747 17.5 19.167 16.0076 19.167 14.1667V6.68557C19.1673 6.67283 19.1673 6.66005 19.167 6.64725V5.83333C19.167 3.99238 17.6747 2.5 15.8337 2.5H4.16705C2.3261 2.5 0.833718 3.99238 0.833718 5.83333V6.64726C0.833422 6.66005 0.833423 6.67282 0.833718 6.68557V14.1667C0.833718 16.0076 2.3261 17.5 4.16705 17.5H15.8337ZM2.50038 14.1667C2.50038 15.0871 3.24658 15.8333 4.16705 15.8333H15.8337C16.7542 15.8333 17.5004 15.0871 17.5004 14.1667V7.89753L11.2384 10.4023C10.4436 10.7202 9.55712 10.7202 8.76241 10.4023L2.50038 7.89753V14.1667ZM10.6194 8.85488L17.5004 6.10247V5.83333C17.5004 4.91286 16.7542 4.16667 15.8337 4.16667H4.16705C3.24658 4.16667 2.50038 4.91286 2.50038 5.83333V6.10247L9.3814 8.85488C9.77875 9.01382 10.222 9.01382 10.6194 8.85488Z" fill="#667185"/>
</svg>
