<svg width="39" height="39" viewBox="0 0 39 39" fill="none" xmlns="http://www.w3.org/2000/svg">
<rect x="0.296875" y="0.131958" width="38.5055" height="38.5055" rx="9.62637" fill="#FFEDED"/>
<path d="M23.6078 22.2093C23.983 21.953 24.4232 21.8082 24.8773 21.7917C25.3314 21.7751 25.7809 21.8875 26.1738 22.1158C26.5668 22.344 26.887 22.6789 27.0976 23.0816C27.3081 23.4842 27.4004 23.9383 27.3636 24.3912C26.4012 24.7276 25.3788 24.8585 24.3626 24.7755C24.3595 23.8663 24.0977 22.976 23.6078 22.2101C23.1729 21.528 22.573 20.9667 21.8636 20.578C21.1543 20.1893 20.3583 19.9858 19.5494 19.9864C18.7407 19.986 17.9449 20.1895 17.2357 20.5782C16.5265 20.9669 15.9267 21.5281 15.4919 22.2101M24.3618 24.7747L24.3626 24.7996C24.3626 24.9801 24.353 25.1582 24.3329 25.3338C22.8772 26.169 21.2277 26.6072 19.5494 26.6045C17.8087 26.6045 16.1746 26.1424 14.7659 25.3338C14.7453 25.1482 14.7354 24.9615 14.7363 24.7747M14.7363 24.7747C13.7204 24.8607 12.6986 24.7303 11.7368 24.3921C11.7002 23.9393 11.7925 23.4853 12.003 23.0828C12.2136 22.6802 12.5337 22.3455 12.9265 22.1172C13.3193 21.889 13.7686 21.7766 14.2226 21.793C14.6766 21.8095 15.1167 21.954 15.4919 22.2101M14.7363 24.7747C14.7391 23.8656 15.0023 22.9761 15.4919 22.2101M21.956 15.1732C21.956 15.8115 21.7025 16.4236 21.2512 16.8749C20.7998 17.3262 20.1877 17.5798 19.5494 17.5798C18.9112 17.5798 18.299 17.3262 17.8477 16.8749C17.3964 16.4236 17.1428 15.8115 17.1428 15.1732C17.1428 14.5349 17.3964 13.9228 17.8477 13.4715C18.299 13.0202 18.9112 12.7666 19.5494 12.7666C20.1877 12.7666 20.7998 13.0202 21.2512 13.4715C21.7025 13.9228 21.956 14.5349 21.956 15.1732ZM26.7692 17.5798C26.7692 17.8168 26.7225 18.0515 26.6318 18.2705C26.5411 18.4895 26.4082 18.6885 26.2406 18.8561C26.073 19.0237 25.874 19.1566 25.655 19.2473C25.436 19.338 25.2013 19.3847 24.9643 19.3847C24.7272 19.3847 24.4925 19.338 24.2736 19.2473C24.0546 19.1566 23.8556 19.0237 23.688 18.8561C23.5204 18.6885 23.3874 18.4895 23.2967 18.2705C23.206 18.0515 23.1593 17.8168 23.1593 17.5798C23.1593 17.1011 23.3495 16.642 23.688 16.3035C24.0265 15.965 24.4856 15.7748 24.9643 15.7748C25.443 15.7748 25.9021 15.965 26.2406 16.3035C26.5791 16.642 26.7692 17.1011 26.7692 17.5798ZM15.9396 17.5798C15.9396 17.8168 15.8929 18.0515 15.8022 18.2705C15.7115 18.4895 15.5785 18.6885 15.4109 18.8561C15.2433 19.0237 15.0443 19.1566 14.8253 19.2473C14.6063 19.338 14.3716 19.3847 14.1346 19.3847C13.8976 19.3847 13.6629 19.338 13.4439 19.2473C13.2249 19.1566 13.0259 19.0237 12.8583 18.8561C12.6907 18.6885 12.5578 18.4895 12.4671 18.2705C12.3763 18.0515 12.3297 17.8168 12.3297 17.5798C12.3297 17.1011 12.5198 16.642 12.8583 16.3035C13.1968 15.965 13.6559 15.7748 14.1346 15.7748C14.6133 15.7748 15.0724 15.965 15.4109 16.3035C15.7494 16.642 15.9396 17.1011 15.9396 17.5798Z" stroke="#EA3232" stroke-width="1.2033" stroke-linecap="round" stroke-linejoin="round"/>
</svg>
