<svg width="39" height="39" viewBox="0 0 39 39" fill="none" xmlns="http://www.w3.org/2000/svg">
<rect x="0.395996" y="0.0769653" width="38.5055" height="38.5055" rx="9.62637" fill="#EEFFED"/>
<path d="M23.7069 22.1542C24.0821 21.898 24.5223 21.7532 24.9764 21.7366C25.4305 21.7201 25.88 21.8324 26.273 22.0607C26.6659 22.289 26.9862 22.6238 27.1967 23.0265C27.4073 23.4292 27.4995 23.8833 27.4628 24.3362C26.5003 24.6726 25.478 24.8035 24.4617 24.7204C24.4586 23.8113 24.1968 22.9209 23.7069 22.155C23.272 21.473 22.6721 20.9116 21.9628 20.523C21.2534 20.1343 20.4574 19.9308 19.6486 19.9313C18.8398 19.9309 18.044 20.1345 17.3348 20.5231C16.6256 20.9118 16.0258 21.4731 15.591 22.155M24.4609 24.7196L24.4617 24.7445C24.4617 24.925 24.4521 25.1031 24.4321 25.2788C22.9764 26.114 21.3268 26.5521 19.6486 26.5495C17.9078 26.5495 16.2737 26.0874 14.8651 25.2788C14.8444 25.0931 14.8345 24.9064 14.8354 24.7196M14.8354 24.7196C13.8195 24.8057 12.7977 24.6753 11.836 24.337C11.7993 23.8842 11.8916 23.4303 12.1022 23.0277C12.3127 22.6252 12.6328 22.2904 13.0256 22.0622C13.4184 21.834 13.8678 21.7216 14.3217 21.738C14.7757 21.7544 15.2158 21.899 15.591 22.155M14.8354 24.7196C14.8383 23.8105 15.1014 22.921 15.591 22.155M22.0552 15.1181C22.0552 15.7564 21.8016 16.3685 21.3503 16.8199C20.899 17.2712 20.2868 17.5247 19.6486 17.5247C19.0103 17.5247 18.3982 17.2712 17.9468 16.8199C17.4955 16.3685 17.242 15.7564 17.242 15.1181C17.242 14.4799 17.4955 13.8677 17.9468 13.4164C18.3982 12.9651 19.0103 12.7115 19.6486 12.7115C20.2868 12.7115 20.899 12.9651 21.3503 13.4164C21.8016 13.8677 22.0552 14.4799 22.0552 15.1181ZM26.8683 17.5247C26.8683 17.7618 26.8217 17.9965 26.7309 18.2155C26.6402 18.4344 26.5073 18.6334 26.3397 18.801C26.1721 18.9686 25.9731 19.1016 25.7541 19.1923C25.5351 19.283 25.3004 19.3297 25.0634 19.3297C24.8264 19.3297 24.5917 19.283 24.3727 19.1923C24.1537 19.1016 23.9547 18.9686 23.7871 18.801C23.6195 18.6334 23.4866 18.4344 23.3958 18.2155C23.3051 17.9965 23.2585 17.7618 23.2585 17.5247C23.2585 17.046 23.4486 16.5869 23.7871 16.2484C24.1256 15.91 24.5847 15.7198 25.0634 15.7198C25.5421 15.7198 26.0012 15.91 26.3397 16.2484C26.6782 16.5869 26.8683 17.046 26.8683 17.5247ZM16.0387 17.5247C16.0387 17.7618 15.992 17.9965 15.9013 18.2155C15.8106 18.4344 15.6776 18.6334 15.51 18.801C15.3424 18.9686 15.1434 19.1016 14.9244 19.1923C14.7055 19.283 14.4708 19.3297 14.2337 19.3297C13.9967 19.3297 13.762 19.283 13.543 19.1923C13.324 19.1016 13.125 18.9686 12.9574 18.801C12.7898 18.6334 12.6569 18.4344 12.5662 18.2155C12.4755 17.9965 12.4288 17.7618 12.4288 17.5247C12.4288 17.046 12.6189 16.5869 12.9574 16.2484C13.2959 15.91 13.755 15.7198 14.2337 15.7198C14.7124 15.7198 15.1715 15.91 15.51 16.2484C15.8485 16.5869 16.0387 17.046 16.0387 17.5247Z" stroke="#0E8604" stroke-width="1.2033" stroke-linecap="round" stroke-linejoin="round"/>
</svg>
