<svg width="17" height="17" viewBox="0 0 17 17" fill="none" xmlns="http://www.w3.org/2000/svg">
<g clip-path="url(#clip0_85_2981)">
<path d="M0.574707 4.10787C0.574707 3.36947 1.1733 2.77087 1.9117 2.77087H15.2817C16.0201 2.77087 16.6187 3.36947 16.6187 4.10787V12.8938C16.6187 13.6323 16.0201 14.2308 15.2817 14.2308H1.9117C1.1733 14.2308 0.574707 13.6322 0.574707 12.8938V4.10787Z" fill="white"/>
<mask id="mask0_85_2981" style="mask-type:luminance" maskUnits="userSpaceOnUse" x="0" y="2" width="17" height="13">
<path d="M0.574707 4.10787C0.574707 3.36947 1.1733 2.77087 1.9117 2.77087H15.2817C16.0201 2.77087 16.6187 3.36947 16.6187 4.10787V12.8938C16.6187 13.6323 16.0201 14.2308 15.2817 14.2308H1.9117C1.1733 14.2308 0.574707 13.6322 0.574707 12.8938V4.10787Z" fill="white"/>
</mask>
<g mask="url(#mask0_85_2981)">
<path d="M0.574707 2.77087H16.6187V14.2308H0.574707V2.77087Z" fill="#0A17A7"/>
<path fill-rule="evenodd" clip-rule="evenodd" d="M3.2487 5.06287L0.574707 2.77087H0.956706L3.6307 4.68087H4.3947L7.45069 2.77087V3.0382C7.45069 3.11016 7.41593 3.1777 7.35737 3.21953L4.7767 5.06287V5.82687L7.19139 7.8966C7.28044 7.97294 7.22646 8.11886 7.10917 8.11886C7.08284 8.11886 7.05717 8.11063 7.03574 8.09533L4.3947 6.20886H3.6307L0.574707 8.11886V7.73686L3.2487 5.82687V5.06287Z" fill="#FF2E3B"/>
<path fill-rule="evenodd" clip-rule="evenodd" d="M3.24837 5.06288V5.82688L0.574377 7.73687V8.11887L3.63037 6.20888H4.39437L7.03542 8.09534C7.05684 8.11064 7.08251 8.11887 7.10885 8.11887C7.22613 8.11887 7.28012 7.97295 7.19106 7.89662L4.77637 5.82688V5.06288L7.35705 3.21954C7.4156 3.17771 7.45036 3.11018 7.45036 3.03821V2.77089L4.39437 4.68088H3.63037L0.956376 2.77089H0.574377L3.24837 5.06288ZM3.77319 4.23522L1.0992 2.32522H-0.630371L2.8027 5.26786V5.59753L0.128712 7.50753V8.92296L3.75818 6.65454H4.25155L6.77638 8.45799C6.87339 8.52729 6.98963 8.56454 7.10885 8.56454C7.63989 8.56454 7.8843 7.90385 7.4811 7.55824L5.22203 5.6219V5.29223L7.61608 3.58219C7.79176 3.45671 7.89602 3.2541 7.89602 3.03821V1.9668L4.26655 4.23522H3.77319Z" fill="white"/>
<path fill-rule="evenodd" clip-rule="evenodd" d="M0.574707 4.68087V6.20886H3.2487V8.05519C3.2487 8.30133 3.44823 8.50086 3.69436 8.50086H4.33103C4.57716 8.50086 4.7767 8.30133 4.7767 8.05519V6.20886H7.38702C7.63316 6.20886 7.83269 6.00933 7.83269 5.7632V5.12653C7.83269 4.8804 7.63316 4.68087 7.38702 4.68087H4.7767V2.77087H3.2487V4.68087H0.574707Z" fill="url(#paint0_linear_85_2981)"/>
<path fill-rule="evenodd" clip-rule="evenodd" d="M0.574707 5.06287H3.6307V4.68087V2.77087H4.3947V4.68087V5.06287H7.45069V5.82687H4.3947V6.20886V8.11886H3.6307V6.20886V5.82687H0.574707V5.06287Z" fill="url(#paint1_linear_85_2981)"/>
<path fill-rule="evenodd" clip-rule="evenodd" d="M4.01276 12.1299L3.33916 12.4841L3.46781 11.734L2.92285 11.2028L3.67596 11.0934L4.01276 10.4109L4.34956 11.0934L5.10267 11.2028L4.55771 11.734L4.68636 12.4841L4.01276 12.1299Z" fill="white"/>
<path fill-rule="evenodd" clip-rule="evenodd" d="M12.0344 12.703L11.4941 12.8612L11.6524 12.321L11.4941 11.7808L12.0344 11.939L12.5746 11.7808L12.4164 12.321L12.5746 12.8612L12.0344 12.703Z" fill="white"/>
<path fill-rule="evenodd" clip-rule="evenodd" d="M12.0344 5.44481L11.4941 5.60304L11.6524 5.06281L11.4941 4.52258L12.0344 4.68081L12.5746 4.52258L12.4164 5.06281L12.5746 5.60304L12.0344 5.44481Z" fill="white"/>
<path fill-rule="evenodd" clip-rule="evenodd" d="M14.3264 7.73674L13.7861 7.89497L13.9444 7.35474L13.7861 6.81451L14.3264 6.97274L14.8666 6.81451L14.7084 7.35474L14.8666 7.89497L14.3264 7.73674Z" fill="white"/>
<path fill-rule="evenodd" clip-rule="evenodd" d="M9.74286 8.5009L9.20264 8.65913L9.36087 8.1189L9.20264 7.57867L9.74286 7.7369L10.2831 7.57867L10.1249 8.1189L10.2831 8.65913L9.74286 8.5009Z" fill="white"/>
<path fill-rule="evenodd" clip-rule="evenodd" d="M13.1803 9.4558L12.9102 9.53492L12.9893 9.2648L12.9102 8.99469L13.1803 9.0738L13.4504 8.99469L13.3713 9.2648L13.4504 9.53492L13.1803 9.4558Z" fill="white"/>
</g>
</g>
<defs>
<linearGradient id="paint0_linear_85_2981" x1="0.574707" y1="2.77087" x2="0.574707" y2="8.50086" gradientUnits="userSpaceOnUse">
<stop stop-color="white"/>
<stop offset="1" stop-color="#F0F0F0"/>
</linearGradient>
<linearGradient id="paint1_linear_85_2981" x1="0.574707" y1="2.77087" x2="0.574707" y2="8.11886" gradientUnits="userSpaceOnUse">
<stop stop-color="#FF2E3B"/>
<stop offset="1" stop-color="#FC0D1B"/>
</linearGradient>
<clipPath id="clip0_85_2981">
<rect width="16.044" height="16.044" fill="white" transform="translate(0.574707 0.477966)"/>
</clipPath>
</defs>
</svg>
