<svg width="20" height="20" viewBox="0 0 20 20" fill="none" xmlns="http://www.w3.org/2000/svg">
<path d="M4.41091 12.4664C4.08547 12.7918 4.08547 13.3194 4.41091 13.6449C4.73634 13.9703 5.26398 13.9703 5.58942 13.6449L8.38997 10.8443L9.47305 11.7289C9.81338 12.0068 10.311 11.9727 10.6103 11.651L13.3359 8.72103L14.3922 9.84781C14.707 10.1836 15.2344 10.2006 15.5701 9.8858C15.9059 9.57103 15.9229 9.04366 15.6081 8.7079L13.9414 6.93013C13.7835 6.76167 13.5628 6.6663 13.3319 6.66674C13.101 6.66719 12.8806 6.76343 12.7233 6.93249L9.92214 9.94378L8.86061 9.07686C8.52923 8.80623 8.04677 8.83052 7.74424 9.13304L4.41091 12.4664Z" fill="black"/>
<path fill-rule="evenodd" clip-rule="evenodd" d="M4.16683 2.5C2.32588 2.5 0.833496 3.99239 0.833496 5.83333V14.1667C0.833496 16.0076 2.32588 17.5 4.16683 17.5H15.8335C17.6744 17.5 19.1668 16.0076 19.1668 14.1667V5.83333C19.1668 3.99239 17.6744 2.5 15.8335 2.5H4.16683ZM2.50016 5.83333C2.50016 4.91286 3.24636 4.16667 4.16683 4.16667H15.8335C16.754 4.16667 17.5002 4.91286 17.5002 5.83333V14.1667C17.5002 15.0871 16.754 15.8333 15.8335 15.8333H4.16683C3.24635 15.8333 2.50016 15.0871 2.50016 14.1667V5.83333Z" fill="black"/>
</svg>
