<svg width="20" height="20" viewBox="0 0 20 20" fill="none" xmlns="http://www.w3.org/2000/svg">
<path fill-rule="evenodd" clip-rule="evenodd" d="M11.9123 1.98751C10.7645 1.1841 9.2369 1.18409 8.08917 1.98751L2.35786 5.99943C1.39234 6.67529 0.855489 7.81077 0.94588 8.98586L1.5334 16.6236C1.6442 18.064 2.94937 19.111 4.37959 18.9067L7.02093 18.5294C8.25255 18.3534 9.16738 17.2986 9.16738 16.0545V15C9.16738 14.5397 9.54047 14.1666 10.0007 14.1666C10.4609 14.1666 10.834 14.5397 10.834 15V16.0545C10.834 17.2986 11.7489 18.3534 12.9805 18.5294L15.6218 18.9067C17.0521 19.111 18.3572 18.064 18.468 16.6236L19.0555 8.98586C19.1459 7.81077 18.6091 6.67529 17.6436 5.99943L11.9123 1.98751ZM9.04494 3.35289C9.61881 2.95119 10.3826 2.95119 10.9565 3.3529L16.6878 7.36482C17.1706 7.70275 17.439 8.27049 17.3938 8.85803L16.8063 16.4957C16.7693 16.9759 16.3343 17.3249 15.8575 17.2568L13.2162 16.8794C12.8057 16.8208 12.5007 16.4692 12.5007 16.0545V15C12.5007 13.6193 11.3814 12.5 10.0007 12.5C8.62 12.5 7.50071 13.6193 7.50071 15V16.0545C7.50071 16.4692 7.19577 16.8208 6.78523 16.8794L4.14388 17.2568C3.66715 17.3249 3.23209 16.9759 3.19515 16.4957L2.60764 8.85803C2.56244 8.27048 2.83087 7.70275 3.31363 7.36481L9.04494 3.35289Z" fill="#499AFF"/>
</svg>
