<svg width="39" height="39" viewBox="0 0 39 39" fill="none" xmlns="http://www.w3.org/2000/svg">
<rect x="0.362793" y="0.0769653" width="38.5055" height="38.5055" rx="9.62637" fill="#FFEDFE"/>
<path d="M23.6742 22.1542C24.0494 21.898 24.4896 21.7532 24.9437 21.7366C25.3978 21.7201 25.8473 21.8324 26.2402 22.0607C26.6332 22.289 26.9534 22.6238 27.164 23.0265C27.3746 23.4292 27.4668 23.8833 27.4301 24.3362C26.4676 24.6726 25.4452 24.8035 24.429 24.7204C24.4259 23.8113 24.1641 22.9209 23.6742 22.155C23.2393 21.473 22.6394 20.9116 21.9301 20.523C21.2207 20.1343 20.4247 19.9308 19.6158 19.9313C18.8071 19.9309 18.0113 20.1345 17.3021 20.5231C16.5929 20.9118 15.9931 21.4731 15.5583 22.155M24.4282 24.7196L24.429 24.7445C24.429 24.925 24.4194 25.1031 24.3994 25.2788C22.9437 26.114 21.2941 26.5521 19.6158 26.5495C17.8751 26.5495 16.241 26.0874 14.8323 25.2788C14.8117 25.0931 14.8018 24.9064 14.8027 24.7196M14.8027 24.7196C13.7868 24.8057 12.765 24.6753 11.8032 24.337C11.7666 23.8842 11.8589 23.4303 12.0694 23.0277C12.28 22.6252 12.6001 22.2904 12.9929 22.0622C13.3857 21.834 13.835 21.7216 14.289 21.738C14.743 21.7544 15.1831 21.899 15.5583 22.155M14.8027 24.7196C14.8055 23.8105 15.0687 22.921 15.5583 22.155M22.0224 15.1181C22.0224 15.7564 21.7689 16.3685 21.3176 16.8199C20.8662 17.2712 20.2541 17.5247 19.6158 17.5247C18.9776 17.5247 18.3655 17.2712 17.9141 16.8199C17.4628 16.3685 17.2093 15.7564 17.2093 15.1181C17.2093 14.4799 17.4628 13.8677 17.9141 13.4164C18.3655 12.9651 18.9776 12.7115 19.6158 12.7115C20.2541 12.7115 20.8662 12.9651 21.3176 13.4164C21.7689 13.8677 22.0224 14.4799 22.0224 15.1181ZM26.8356 17.5247C26.8356 17.7618 26.7889 17.9965 26.6982 18.2155C26.6075 18.4344 26.4746 18.6334 26.307 18.801C26.1394 18.9686 25.9404 19.1016 25.7214 19.1923C25.5024 19.283 25.2677 19.3297 25.0307 19.3297C24.7937 19.3297 24.5589 19.283 24.34 19.1923C24.121 19.1016 23.922 18.9686 23.7544 18.801C23.5868 18.6334 23.4538 18.4344 23.3631 18.2155C23.2724 17.9965 23.2257 17.7618 23.2257 17.5247C23.2257 17.046 23.4159 16.5869 23.7544 16.2484C24.0929 15.91 24.552 15.7198 25.0307 15.7198C25.5094 15.7198 25.9685 15.91 26.307 16.2484C26.6455 16.5869 26.8356 17.046 26.8356 17.5247ZM16.006 17.5247C16.006 17.7618 15.9593 17.9965 15.8686 18.2155C15.7779 18.4344 15.6449 18.6334 15.4773 18.801C15.3097 18.9686 15.1107 19.1016 14.8917 19.1923C14.6727 19.283 14.438 19.3297 14.201 19.3297C13.964 19.3297 13.7293 19.283 13.5103 19.1923C13.2913 19.1016 13.0923 18.9686 12.9247 18.801C12.7571 18.6334 12.6242 18.4344 12.5335 18.2155C12.4428 17.9965 12.3961 17.7618 12.3961 17.5247C12.3961 17.046 12.5862 16.5869 12.9247 16.2484C13.2632 15.91 13.7223 15.7198 14.201 15.7198C14.6797 15.7198 15.1388 15.91 15.4773 16.2484C15.8158 16.5869 16.006 17.046 16.006 17.5247Z" stroke="#A41C9E" stroke-width="1.2033" stroke-linecap="round" stroke-linejoin="round"/>
</svg>
