<svg width="20" height="20" viewBox="0 0 20 20" fill="none" xmlns="http://www.w3.org/2000/svg">
<path d="M6.66651 5.41667C6.66651 4.95643 6.29342 4.58333 5.83318 4.58333C5.37294 4.58333 4.99984 4.95643 4.99984 5.41667V7.08333C4.99984 7.54357 5.37294 7.91667 5.83318 7.91667C6.29342 7.91667 6.66651 7.54357 6.66651 7.08333V5.41667Z" fill="black"/>
<path d="M5.83318 8.33333C6.29342 8.33333 6.66651 8.70643 6.66651 9.16667V10.8333C6.66651 11.2936 6.29342 11.6667 5.83318 11.6667C5.37294 11.6667 4.99984 11.2936 4.99984 10.8333V9.16667C4.99984 8.70643 5.37294 8.33333 5.83318 8.33333Z" fill="black"/>
<path d="M6.66651 12.9167C6.66651 12.4564 6.29342 12.0833 5.83318 12.0833C5.37294 12.0833 4.99984 12.4564 4.99984 12.9167V14.5833C4.99984 15.0436 5.37294 15.4167 5.83318 15.4167C6.29342 15.4167 6.66651 15.0436 6.66651 14.5833V12.9167Z" fill="black"/>
<path fill-rule="evenodd" clip-rule="evenodd" d="M18.7498 14.1667L18.7498 13.9235C18.7498 13.406 18.6294 12.8956 18.3979 12.4328L17.644 10.925C17.3765 10.39 17.4162 9.75275 17.748 9.25511L18.19 8.59206C18.555 8.0445 18.7498 7.40115 18.7498 6.74306V5.83333C18.7498 3.99239 17.2575 2.5 15.4165 2.5H4.06156C2.06731 2.5 0.524342 4.24785 0.771696 6.2267C0.831457 6.70478 0.994695 7.16409 1.25005 7.57266L2.21505 9.11667C2.55284 9.65712 2.55284 10.3429 2.21505 10.8833L1.33985 12.2837C1.00874 12.8134 0.833178 13.4256 0.833178 14.0503L0.833178 14.1667C0.833177 16.0076 2.32556 17.5 4.16651 17.5H15.4165C17.2575 17.5 18.7498 16.0076 18.7498 14.1667ZM17.0832 13.9235L17.0832 14.1667C17.0832 15.0871 16.337 15.8333 15.4165 15.8333L4.16651 15.8333C3.24604 15.8333 2.49984 15.0871 2.49984 14.1667V14.0503C2.49984 13.738 2.58763 13.4319 2.75318 13.167L3.62839 11.7667C4.30395 10.6858 4.30395 9.31424 3.62839 8.23334L2.66338 6.68933C2.53639 6.48615 2.45521 6.25773 2.42549 6.01998C2.30248 5.03588 3.06981 4.16667 4.06156 4.16667L15.4165 4.16667C16.337 4.16667 17.0832 4.91286 17.0832 5.83333V6.74306C17.0832 7.07211 16.9858 7.39378 16.8033 7.66756L16.3612 8.33061C15.6977 9.3259 15.6184 10.6004 16.1533 11.6703L16.9072 13.1781C17.0229 13.4096 17.0832 13.6648 17.0832 13.9235Z" fill="black"/>
</svg>
