<svg width="20" height="20" viewBox="0 0 20 20" fill="none" xmlns="http://www.w3.org/2000/svg">
<path d="M6.24984 3.33329C6.71008 3.33329 7.08317 2.9602 7.08317 2.49996C7.08317 2.03972 6.71008 1.66663 6.24984 1.66663H4.99984C3.15889 1.66663 1.6665 3.15901 1.6665 4.99996V15C1.6665 16.8409 3.15889 18.3333 4.99984 18.3333H6.24984C6.71007 18.3333 7.08317 17.9602 7.08317 17.5C7.08317 17.0397 6.71007 16.6666 6.24984 16.6666H4.99984C4.07936 16.6666 3.33317 15.9204 3.33317 15L3.33317 4.99996C3.33317 4.07948 4.07936 3.33329 4.99984 3.33329H6.24984Z" fill="#B3B3B3"/>
<path d="M18.9224 10.5892C19.2479 10.2638 19.2479 9.73614 18.9224 9.4107L15.5891 6.07737C15.2637 5.75193 14.736 5.75193 14.4106 6.07737C14.0851 6.40281 14.0851 6.93044 14.4106 7.25588L16.3213 9.16663L6.6665 9.16663C6.20627 9.16663 5.83317 9.53972 5.83317 9.99996C5.83317 10.4602 6.20627 10.8333 6.6665 10.8333L16.3213 10.8333L14.4106 12.744C14.0851 13.0695 14.0851 13.5971 14.4106 13.9225C14.736 14.248 15.2637 14.248 15.5891 13.9225L18.9224 10.5892Z" fill="#B3B3B3"/>
</svg>
