<svg width="20" height="20" viewBox="0 0 20 20" fill="none" xmlns="http://www.w3.org/2000/svg">
<path fill-rule="evenodd" clip-rule="evenodd" d="M9.58317 1.66669C5.21092 1.66669 1.6665 5.2111 1.6665 9.58335C1.6665 13.9556 5.21092 17.5 9.58317 17.5C11.4691 17.5 13.2011 16.8405 14.5609 15.7396L16.9106 18.0893C17.236 18.4147 17.7637 18.4147 18.0891 18.0893C18.4145 17.7638 18.4145 17.2362 18.0891 16.9108L15.7394 14.5611C16.8404 13.2012 17.4998 11.4693 17.4998 9.58335C17.4998 5.2111 13.9554 1.66669 9.58317 1.66669ZM3.33317 9.58335C3.33317 6.13157 6.13139 3.33335 9.58317 3.33335C13.035 3.33335 15.8332 6.13157 15.8332 9.58335C15.8332 13.0351 13.035 15.8334 9.58317 15.8334C6.13139 15.8334 3.33317 13.0351 3.33317 9.58335Z" fill="#667185"/>
</svg>
