<svg width="39" height="39" viewBox="0 0 39 39" fill="none" xmlns="http://www.w3.org/2000/svg">
<rect x="0.296875" y="0.0769653" width="38.5055" height="38.5055" rx="9.62637" fill="#F1F1F1"/>
<path d="M23.6078 22.1542C23.983 21.898 24.4232 21.7532 24.8773 21.7366C25.3314 21.7201 25.7809 21.8324 26.1738 22.0607C26.5668 22.289 26.887 22.6238 27.0976 23.0265C27.3081 23.4292 27.4004 23.8833 27.3636 24.3362C26.4012 24.6726 25.3788 24.8035 24.3626 24.7204C24.3595 23.8113 24.0977 22.9209 23.6078 22.155C23.1729 21.473 22.573 20.9116 21.8636 20.523C21.1543 20.1343 20.3583 19.9308 19.5494 19.9313C18.7407 19.9309 17.9449 20.1345 17.2357 20.5231C16.5265 20.9118 15.9267 21.4731 15.4919 22.155M24.3618 24.7196L24.3626 24.7445C24.3626 24.925 24.353 25.1031 24.3329 25.2788C22.8772 26.114 21.2277 26.5521 19.5494 26.5495C17.8087 26.5495 16.1746 26.0874 14.7659 25.2788C14.7453 25.0931 14.7354 24.9064 14.7363 24.7196M14.7363 24.7196C13.7204 24.8057 12.6986 24.6753 11.7368 24.337C11.7002 23.8842 11.7925 23.4303 12.003 23.0277C12.2136 22.6252 12.5337 22.2904 12.9265 22.0622C13.3193 21.834 13.7686 21.7216 14.2226 21.738C14.6766 21.7544 15.1167 21.899 15.4919 22.155M14.7363 24.7196C14.7391 23.8105 15.0023 22.921 15.4919 22.155M21.956 15.1181C21.956 15.7564 21.7025 16.3685 21.2512 16.8199C20.7998 17.2712 20.1877 17.5247 19.5494 17.5247C18.9112 17.5247 18.299 17.2712 17.8477 16.8199C17.3964 16.3685 17.1428 15.7564 17.1428 15.1181C17.1428 14.4799 17.3964 13.8677 17.8477 13.4164C18.299 12.9651 18.9112 12.7115 19.5494 12.7115C20.1877 12.7115 20.7998 12.9651 21.2512 13.4164C21.7025 13.8677 21.956 14.4799 21.956 15.1181ZM26.7692 17.5247C26.7692 17.7618 26.7225 17.9965 26.6318 18.2155C26.5411 18.4344 26.4082 18.6334 26.2406 18.801C26.073 18.9686 25.874 19.1016 25.655 19.1923C25.436 19.283 25.2013 19.3297 24.9643 19.3297C24.7272 19.3297 24.4925 19.283 24.2736 19.1923C24.0546 19.1016 23.8556 18.9686 23.688 18.801C23.5204 18.6334 23.3874 18.4344 23.2967 18.2155C23.206 17.9965 23.1593 17.7618 23.1593 17.5247C23.1593 17.046 23.3495 16.5869 23.688 16.2484C24.0265 15.91 24.4856 15.7198 24.9643 15.7198C25.443 15.7198 25.9021 15.91 26.2406 16.2484C26.5791 16.5869 26.7692 17.046 26.7692 17.5247ZM15.9396 17.5247C15.9396 17.7618 15.8929 17.9965 15.8022 18.2155C15.7115 18.4344 15.5785 18.6334 15.4109 18.801C15.2433 18.9686 15.0443 19.1016 14.8253 19.1923C14.6063 19.283 14.3716 19.3297 14.1346 19.3297C13.8976 19.3297 13.6629 19.283 13.4439 19.1923C13.2249 19.1016 13.0259 18.9686 12.8583 18.801C12.6907 18.6334 12.5578 18.4344 12.4671 18.2155C12.3763 17.9965 12.3297 17.7618 12.3297 17.5247C12.3297 17.046 12.5198 16.5869 12.8583 16.2484C13.1968 15.91 13.6559 15.7198 14.1346 15.7198C14.6133 15.7198 15.0724 15.91 15.4109 16.2484C15.7494 16.5869 15.9396 17.046 15.9396 17.5247Z" stroke="#353535" stroke-width="1.2033" stroke-linecap="round" stroke-linejoin="round"/>
</svg>
