<svg width="17" height="17" viewBox="0 0 17 17" fill="none" xmlns="http://www.w3.org/2000/svg">
<g clip-path="url(#clip0_85_2935)">
<path fill-rule="evenodd" clip-rule="evenodd" d="M10.505 2.51692C9.55428 1.80385 8.24699 1.80385 7.29624 2.51692L2.70194 5.96264C1.96571 6.51481 1.56516 7.40678 1.64158 8.3239L2.06472 13.4015C2.18021 14.7874 3.33876 15.8535 4.72947 15.8535H13.0718C14.4625 15.8535 15.6211 14.7874 15.7366 13.4015L16.1597 8.3239C16.2361 7.40678 15.8356 6.51481 15.0993 5.96264L10.505 2.51692ZM8.09844 3.58651C8.57382 3.22998 9.22746 3.22998 9.70283 3.58651L14.2971 7.03224C14.6652 7.30832 14.8655 7.75431 14.8273 8.21286L14.4042 13.2905C14.3464 13.9834 13.7672 14.5165 13.0718 14.5165H10.9642L11.0993 12.895C11.2065 11.6087 10.1914 10.5055 8.90064 10.5055C7.60988 10.5055 6.5948 11.6087 6.70199 12.895L6.83712 14.5165H4.72947C4.03412 14.5165 3.45484 13.9834 3.3971 13.2905L2.97396 8.21286C2.93575 7.75431 3.13602 7.30832 3.50414 7.03224L8.09844 3.58651ZM9.7669 12.7839L9.62253 14.5165H8.17875L8.03437 12.7839C7.99214 12.2771 8.39208 11.8425 8.90064 11.8425C9.40919 11.8425 9.80914 12.2771 9.7669 12.7839Z" fill="#98A2B3"/>
</g>
<defs>
<clipPath id="clip0_85_2935">
<rect width="16.044" height="16.044" fill="white" transform="translate(0.878906 0.478027)"/>
</clipPath>
</defs>
</svg>
