<svg width="22" height="22" viewBox="0 0 22 22" fill="none" xmlns="http://www.w3.org/2000/svg">
<g filter="url(#filter0_d_85_2490)">
<path d="M2.25 7.47222C2.25 5.29424 2.25 4.20525 2.67386 3.37337C3.0467 2.64163 3.64163 2.0467 4.37337 1.67386C5.20525 1.25 6.29424 1.25 8.47222 1.25H13.5278C15.7058 1.25 16.7948 1.25 17.6266 1.67386C18.3584 2.0467 18.9533 2.64163 19.3261 3.37337C19.75 4.20525 19.75 5.29424 19.75 7.47222V12.5278C19.75 14.7058 19.75 15.7948 19.3261 16.6266C18.9533 17.3584 18.3584 17.9533 17.6266 18.3261C16.7948 18.75 15.7058 18.75 13.5278 18.75H8.47222C6.29424 18.75 5.20525 18.75 4.37337 18.3261C3.64163 17.9533 3.0467 17.3584 2.67386 16.6266C2.25 15.7948 2.25 14.7058 2.25 12.5278V7.47222Z" fill="white"/>
<path d="M11.0012 7.7818L8.83814 3.96448C8.90996 3.89136 8.99259 3.84339 9.07522 3.81116C8.43734 4.02109 8.14466 4.73738 8.14466 4.73738L4.1931 11.7092C4.13749 11.9278 4.12205 12.1251 4.129 12.2989H8.44198L11.0012 7.7818Z" fill="#34A853"/>
<path d="M11.001 7.7818L13.5602 12.2989H17.8732C17.8801 12.1251 17.8647 11.9278 17.8091 11.7092L13.8575 4.73738C13.8575 4.73738 13.5641 4.02109 12.927 3.81116C13.0088 3.84339 13.0922 3.89136 13.164 3.96448L11.001 7.7818Z" fill="#FBBC05"/>
<path d="M11.0014 7.78202L13.1645 3.96469C13.0927 3.89157 13.0093 3.84361 12.9274 3.81137C12.8332 3.78071 12.732 3.76026 12.6224 3.75476H12.5081H9.49479H9.38049C9.27161 3.75948 9.16967 3.77992 9.07546 3.81137C8.9936 3.84361 8.9102 3.89157 8.83838 3.96469L11.0014 7.78202Z" fill="#188038"/>
<path d="M8.44264 12.299L6.3043 16.073C6.3043 16.073 6.23325 16.0384 6.13672 15.9669C6.44021 16.2004 6.73521 16.2499 6.73521 16.2499H15.1334C15.5967 16.2499 15.6932 16.073 15.6932 16.073C15.6948 16.0722 15.6955 16.0715 15.6971 16.0707L13.5603 12.299H8.44264Z" fill="#4285F4"/>
<path d="M8.44286 12.299H4.12988C4.15151 12.8116 4.37391 13.1112 4.37391 13.1112L4.53608 13.3926C4.54767 13.4092 4.55462 13.4186 4.55462 13.4186L4.90753 14.0382L5.69985 15.4173C5.72302 15.4731 5.75005 15.5242 5.77862 15.573C5.78943 15.5895 5.79947 15.6076 5.81106 15.6233C5.81414 15.628 5.81723 15.6327 5.82032 15.6374C5.9184 15.7758 6.02806 15.8828 6.13772 15.9669C6.23425 16.0392 6.30529 16.073 6.30529 16.073L8.44286 12.299Z" fill="#1967D2"/>
<path d="M13.5605 12.299H17.8735C17.8519 12.8116 17.6295 13.1112 17.6295 13.1112L17.4673 13.3926C17.4557 13.4092 17.4488 13.4186 17.4488 13.4186L17.0959 14.0382L16.3036 15.4173C16.2804 15.4731 16.2534 15.5242 16.2248 15.573C16.214 15.5895 16.2039 15.6076 16.1923 15.6233C16.1893 15.628 16.1862 15.6327 16.1831 15.6374C16.085 15.7758 15.9753 15.8828 15.8657 15.9669C15.7692 16.0392 15.6981 16.073 15.6981 16.073L13.5605 12.299Z" fill="#EA4335"/>
</g>
<defs>
<filter id="filter0_d_85_2490" x="-1" y="-1" width="24" height="24" filterUnits="userSpaceOnUse" color-interpolation-filters="sRGB">
<feFlood flood-opacity="0" result="BackgroundImageFix"/>
<feColorMatrix in="SourceAlpha" type="matrix" values="0 0 0 0 0 0 0 0 0 0 0 0 0 0 0 0 0 0 127 0" result="hardAlpha"/>
<feOffset dy="1"/>
<feGaussianBlur stdDeviation="1"/>
<feColorMatrix type="matrix" values="0 0 0 0 0.0627451 0 0 0 0 0.0941176 0 0 0 0 0.156863 0 0 0 0.05 0"/>
<feBlend mode="normal" in2="BackgroundImageFix" result="effect1_dropShadow_85_2490"/>
<feBlend mode="normal" in="SourceGraphic" in2="effect1_dropShadow_85_2490" result="shape"/>
</filter>
</defs>
</svg>
