<svg width="20" height="20" viewBox="0 0 20 20" fill="none" xmlns="http://www.w3.org/2000/svg">
<path d="M15.5303 6.01077C15.7251 4.74073 15.5303 3.89404 14.8485 3.11247C14.1018 2.23322 12.7383 1.875 10.9852 1.875H5.95303C5.59591 1.875 5.30372 2.13552 5.23879 2.49374L3.12854 15.8454C3.09607 16.106 3.29087 16.3339 3.55059 16.3339H6.66726L6.44001 17.7017C6.40754 17.9296 6.56987 18.125 6.82959 18.125H9.45928C9.78394 18.125 10.0437 17.897 10.0761 17.604L10.628 14.1521C10.6605 13.859 10.9527 13.631 11.2449 13.631H11.6345C14.1668 13.631 16.1796 12.5889 16.764 9.59294C16.9912 8.35546 16.8938 7.28081 16.2445 6.56438C16.0497 6.33642 15.8225 6.1736 15.5303 6.01077" fill="#009CDE"/>
<path d="M15.5303 6.01077C15.7251 4.74073 15.5303 3.89404 14.8485 3.11247C14.1018 2.23322 12.7383 1.875 10.9852 1.875H5.95303C5.59591 1.875 5.30372 2.13552 5.23879 2.49374L3.12854 15.8454C3.09607 16.106 3.29087 16.3339 3.55059 16.3339H6.66726L7.41397 11.5143C7.4789 11.1561 7.77108 10.8955 8.1282 10.8955H9.62161C12.5435 10.8955 14.8161 9.7232 15.4654 6.27129C15.4978 6.20616 15.4978 6.10847 15.5303 6.01077Z" fill="#012169"/>
<path d="M8.29053 6.04334C8.32299 5.81538 8.61518 5.52229 8.90737 5.52229H12.8681C13.3227 5.52229 13.7772 5.55486 14.1668 5.61999C14.5239 5.68512 15.1732 5.84795 15.4978 6.04334C15.6926 4.7733 15.4978 3.9266 14.8161 3.14504C14.1018 2.23322 12.7383 1.875 10.9852 1.875H5.95302C5.59591 1.875 5.30372 2.13552 5.23879 2.49374L3.12854 15.8454C3.09607 16.106 3.29087 16.3339 3.55059 16.3339H6.66726L8.29053 6.04334V6.04334Z" fill="#003087"/>
</svg>
