<svg width="33" height="33" viewBox="0 0 33 33" fill="none" xmlns="http://www.w3.org/2000/svg">
<rect x="0.318359" y="0.455994" width="32.0879" height="32.0879" rx="16.044" fill="#F0F2F5"/>
<path fill-rule="evenodd" clip-rule="evenodd" d="M17.0307 10.4835C17.0307 10.1143 16.7314 9.815 16.3622 9.815C15.993 9.815 15.6937 10.1143 15.6937 10.4835V10.8651C13.426 11.1894 11.6827 13.1389 11.6827 15.4965L11.6827 18.1708C11.6827 18.1708 11.6827 18.1707 11.6827 18.1708C11.6826 18.1721 11.6822 18.181 11.6793 18.1985C11.6758 18.2196 11.6696 18.2482 11.6594 18.2851C11.6387 18.3597 11.6058 18.4527 11.5599 18.5626C11.4677 18.783 11.3378 19.0367 11.1941 19.2927C10.9239 19.774 10.7877 20.3475 10.8899 20.8928C10.9978 21.468 11.368 21.9696 12.0003 22.2103C12.5651 22.4254 13.3169 22.622 14.3098 22.7391C14.3334 22.7596 14.3613 22.783 14.3934 22.8087C14.4939 22.8891 14.6374 22.9932 14.8188 23.0969C15.1789 23.3026 15.7112 23.5192 16.3622 23.5192C17.0131 23.5192 17.5455 23.3026 17.9055 23.0969C18.0869 22.9932 18.2304 22.8891 18.3309 22.8087C18.363 22.783 18.3909 22.7596 18.4145 22.7391C19.4074 22.622 20.1593 22.4254 20.7241 22.2103C21.3564 21.9696 21.7266 21.468 21.8344 20.8928C21.9366 20.3475 21.8004 19.774 21.5303 19.2927C21.3866 19.0367 21.2566 18.783 21.1645 18.5626C21.1185 18.4527 21.0856 18.3597 21.0649 18.2851C21.0547 18.2482 21.0485 18.2196 21.0451 18.1985C21.0422 18.181 21.0417 18.1722 21.0417 18.1709C21.0417 18.1708 21.0417 18.1709 21.0417 18.1709L21.0416 18.1653V15.4968C21.0416 13.1393 19.2983 11.1894 17.0307 10.8651V10.4835ZM13.0197 15.4965C13.0197 13.6507 14.516 12.1547 16.3622 12.1547C18.2083 12.1547 19.7047 13.6509 19.7047 15.4968V18.1712C19.7047 18.4807 19.8206 18.8145 19.931 19.0785C20.0509 19.3652 20.2081 19.6687 20.3644 19.9472C20.5164 20.2179 20.5526 20.4738 20.5203 20.6465C20.4935 20.7894 20.422 20.8947 20.2483 20.9608C19.5298 21.2344 18.3168 21.5137 16.3622 21.5137C14.4075 21.5137 13.1946 21.2344 12.476 20.9608C12.3023 20.8947 12.2308 20.7894 12.2041 20.6465C12.1717 20.4738 12.2079 20.2179 12.3599 19.9472C12.5162 19.6687 12.6734 19.3652 12.7933 19.0785C12.9037 18.8145 13.0197 18.4807 13.0197 18.1712V15.4965Z" fill="#344054"/>
</svg>
